<svg xmlns="http://www.w3.org/2000/svg" xmlns:xlink="http://www.w3.org/1999/xlink" width="438" height="372" stroke="#000" stroke-linecap="round" stroke-linejoin="round" fill="#fff" fill-rule="evenodd">
    <g stroke-linejoin="miter">
        <path d="M44.336130367504 185.8553c0-100.7482 81.1071-181.8553 181.8553-181.8553s181.8528 81.1071 181.8528 181.8553-81.1069 181.8528-181.8528 181.8528-181.8553-81.1069-181.8553-181.8528z" fill="none" stroke-width="8"/>
        <g fill="#000" fill-rule="nonzero">
            <use xlink:href="#B"/>
            <use xlink:href="#B" x="-47.856473154929" y="216.394492058883"/>
            <use xlink:href="#B" x="-126.923722919228" y="104.035849203465"/>
            <path d="M33.101368446502 274.492870337864c25.3845 8.7385 52.8494-4.5782 61.5886-29.963s-4.5781-52.8484-29.9629-61.588c-24.9672-8.3236-52.8504 4.9932-61.5891 30.3772-8.7386 24.9694 4.994 52.8516 29.9634 61.1738z"/>
        </g>
        <path d="M388.070758839459 106.371224928083l-124.8432 101.9545" stroke-linecap="butt" fill="none" stroke-width="7"/>
        <path d="M304.841980717473 321.101004134411c-1.6654 20.3912 13.3165 38.7016 34.1236 40.7818 20.8075 1.6652 38.7016-13.3165 40.7818-34.1237 1.6652-20.3904-13.3165-38.7015-34.1237-40.7817-20.8072-1.6654-38.7015 13.3165-40.7817 34.1236z" fill="#000" fill-rule="nonzero"/>
        <path d="M342.294260287479 324.429651304185l-78.6506-115.2711" stroke-linecap="butt" fill="none" stroke-width="7"/>
        <path d="M231.601038560014 230.798146058472c11.2355 17.478 34.5409 22.4713 51.6016 11.2369 17.478-11.2369 22.4713-34.5406 11.2369-51.603-11.2369-17.4783-34.5406-22.4717-51.603-11.2355-17.4783 11.2355-22.4717 34.1235-11.2355 51.6016zM71.385827917989 196.258810435178c-19.1425-11.2369-43.279-4.9945-54.5143 13.7317s-4.9945 42.8636 13.7317 54.099 43.2795 4.9943 54.5165-13.7331 4.9923-42.8623-13.7339-54.0976z" fill="#000" fill-rule="nonzero"/>
        <path d="M50.99462746903 229.965239166495l214.729-21.639" stroke-linecap="butt" fill="none" stroke-width="7"/>
    </g>
    <defs >
        <path id="B" d="M372.258022736159 151.730413662064c25.3845 8.7396 52.8494-4.5776 61.5886-29.9614s-4.5781-52.8509-29.9629-61.5896-52.8504 4.5776-61.5891 29.9609 4.994 53.2672 29.9634 61.5901z"/>
    </defs>
</svg>